<?xml version="1.0" standalone="no"?>
<!DOCTYPE svg PUBLIC "-//W3C//DTD SVG 20010904//EN"
 "http://www.w3.org/TR/2001/REC-SVG-20010904/DTD/svg10.dtd">
<svg version="1.0" xmlns="http://www.w3.org/2000/svg"
 width="300.000000pt" height="330.000000pt" viewBox="0 0 300.000000 330.000000"
 preserveAspectRatio="xMidYMid meet">
<g transform="translate(0.000000,330.000000) scale(0.100000,-0.100000)"
fill="#7e22ce" stroke="#7e22ce">
<path d="M990 2902 c-135 -56 -260 -120 -292 -150 -32 -30 -36 -62 -10 -85 9
-9 105 -41 212 -71 540 -153 832 -259 1507 -547 166 -71 311 -129 321 -129 10
0 27 9 37 20 21 23 15 55 -15 87 -28 31 -153 122 -273 201 -357 232 -1237 690
-1359 708 -23 3 -61 -7 -128 -34z m177 -23 c124 -46 681 -  194 7 1 38 -9
70 -20z"/>
<path d="M1780 2905 c-24 -29 -2 -63 77 -118 134 -92 485 -357 576 -436 102
-88 130 -105 162 -97 59 15 35 76 -89 224 -175 209 -381 356 -590 421 -80 25
-119 27 -136 6z m125 -45 c209 -71 383 -190 532 - -105 176 -219 169
-225 -8 -8 -30 9 -143 104 -134 114 -456 357 -581 438 -50 33 -92 66 -92 74 0
9 6 11 18 6 9 -4 53 -20 97 -35z"/>
<path d="M374 2441 c-17 -10 -47 -41 -67 -68 -50 -69 -137 -238 -137 -267 0
-37 41 -63 113 -71 34 -4 73 -8 87 -10 14 -2 79 -9 145 -15 132 -12 603 -64
730 -81 93 -12 817 -129 980 -158 134 -24 320 -41 453 -41 83 0 102 3 115 18
41 46 4 81 -134 127 -239 81 -679 214 -1133 341 -391 110 -504 136 -871 199
-110 20 -211 37 -225 40 -15 3 -38 -2 -56 -14z m97 -35 c41 -8 121 -22 179
-31 298 -46 650 -131 1136 - -157 25 -321 52 -365 60
-114 20 -773 93 -1097 122 -38 3 -68 10 -68 15 0 31 176 328 194 328 2 0 37
-6 77 -14z"/>
<path d="M555 1873 c-44 -1 -159 -8 -255 -14 -170 -12 -175 -13 -202 -40 l-28
-27 0 -164 c0 -245 -5 -241 288 -199 428 61 474 65 727 64 172 -1 324 -8 535
-28 162 -14 387 -29 500 -32 216 -5 245 -2 410 47 36 10 105 31 155 45 134 38
168 83 94 123 -19 10 -67 12 -214 7 -281 -9 -352 0 -895 115 -293 63 -421 80
-725 100 -142 9 -201 10 -390 3z m525 -54 c230 -18 403 -47 725 - l-195 -53 -200
1 c-116 1 -295 10 -425 22 -640 60 -827 56 -1388 -29 -158 -23 -207 -28 -218
-18 -11 9 -14 46 -14 179 l0 168 27 6 c38 7 333 26 463 30 133 4 320 -2 480
-15z"/>
<path d="M2705 1470 c-27 -10 -126 -45 -220 -76 l-170 -58 -190 1 c-107 1
-301 11 -445 24 -573 51 -877 26 -1438 -117 -77 -20 -107 -51 -97 -103 13 -68
101 -246 148 -299 28 -31 55 -28 187 19 138 48 380 112 505 133 123 20 180 24
480 36 795 32 794 32 1011 161 65 39 139 83 164 97 169 94 203 143 134 188
-16 10 -28 9 -69 -6z m75 -35 c0 -18 -60 -57  l205 -1 157 53 c87 29
183 64 215 77 68 28 83 30 83 10z"/>
<path d="M2647 1230 c-108 -81 -257 -175 -332 -208 -97 -42 -229 -60 -545 -72
-486 -19 -602 -31 -825 -90 -113 -30 -340 -112 -414 -149 -54 -28 -70 -61 -48
-95 33 -50 241 -203 306 -225 31 -10 43 -7 140 35 257 113 364 139 756 189
263 33 361 52 470 87 133 43 216 100 388 267 242 234 260 257 219 294 -28 26
-43 21 -115 -33z 323 185 377 243 26 28 51 34 51 13z"/>
<path d="M2443 803 c-54 -47 -120 -100 -148 -118 -95 -61 -259 -112 -575 -181
-347 -75 -579 -135 -606 -156 -31 -25 -28 -54 7 -80 60 -45 361 -63 549 -33
186 30 372 103 535 209 140 92 395 351 395 402 0 17 -28 44 -46 44 -7 0 -57
-39 -111 -87z m137 60 c0 -33 -242 -277 - 415 94 517 125 167 51 243 97 380
229 82 79 103 95 103 78z"/>
</g>
</svg>
